Gemunu-sinhala-1.ufo
<glyph name="si_A" format="1">
  <advance width="542"/>
  <unicode hex="0D85"/>
  <outline>
    <contour>
      <point x="270.001" y="429" type="line" smooth="yes"/>
      <point x="270.001" y="472.316"/>
      <point x="299.807" y="497.001"/>
      <point x="332.001" y="497.001" type="curve" smooth="yes"/>
      <point x="516" y="497.001" type="line"/>
      <point x="516" y="419.001" type="line"/>
      <point x="480" y="419.001" type="line" smooth="yes"/>
      <point x="468.647" y="418.773"/>
      <point x="467" y="412.334"/>
      <point x="467" y="409.001" type="curve" smooth="yes"/>
      <point x="467" y="394.737"/>
      <point x="513" y="375.79"/>
      <point x="513" y="322" type="curve" smooth="yes"/>
      <point x="513" y="224" type="line" smooth="yes"/>
      <point x="513" y="190.38"/>
      <point x="496.152" y="171.001"/>
      <point x="463" y="171.001" type="curve" smooth="yes"/>
      <point x="394" y="171.001" type="line"/>
      <point x="394" y="107.001" type="line"/>
      <point x="511" y="107.001" type="line"/>
      <point x="511" y="0.000976562" type="line"/>
      <point x="394" y="0.000976562" type="line"/>
      <point x="394" y="-139.999" type="line"/>
      <point x="270" y="-139.999" type="line"/>
      <point x="270" y="0.000976562" type="line"/>
      <point x="69.999" y="0" type="line" smooth="yes"/>
      <point x="33" y="-0"/>
      <point x="21.999" y="14.0518"/>
      <point x="21.999" y="51" type="curve" smooth="yes"/>
      <point x="21.999" y="299" type="line" smooth="yes"/>
      <point x="21.999" y="336.333"/>
      <point x="40.332" y="355"/>
      <point x="76.999" y="355" type="curve" smooth="yes"/>
      <point x="150" y="355" type="line"/>
      <point x="150" y="377" type="line" smooth="yes"/>
      <point x="150" y="392.226"/>
      <point x="144.532" y="394"/>
      <point x="129" y="394" type="curve" smooth="yes"/>
      <point x="21.999" y="394" type="line"/>
      <point x="21.999" y="497" type="line"/>
      <point x="169" y="497" type="line" smooth="yes"/>
      <point x="212.332" y="497"/>
      <point x="241.001" y="474.112"/>
      <point x="241.001" y="431" type="curve" smooth="yes"/>
      <point x="241" y="253" type="line"/>
      <point x="168.999" y="253" type="line" smooth="yes"/>
      <point x="148.816" y="253"/>
      <point x="145.999" y="248.131"/>
      <point x="145.999" y="228" type="curve" smooth="yes"/>
      <point x="145.999" y="128" type="line" smooth="yes"/>
      <point x="145.999" y="114"/>
      <point x="152" y="107"/>
      <point x="162.999" y="107" type="curve" smooth="yes"/>
      <point x="270" y="107.001" type="line"/>
    </contour>
    <contour>
      <point x="393" y="265.001" type="line"/>
      <point x="410" y="265.001" type="line" smooth="yes"/>
      <point x="425.645" y="265.001"/>
      <point x="428" y="269.544"/>
      <point x="428" y="286.001" type="curve" smooth="yes"/>
      <point x="428" y="329" type="line" smooth="yes"/>
      <point x="428" y="358.309"/>
      <point x="407.004" y="375.504"/>
      <point x="407.004" y="392.007" type="curve" smooth="yes"/>
      <point x="407.004" y="394.673"/>
      <point x="407.455" y="397.952"/>
      <point x="409.004" y="400.007" type="curve"/>
      <point x="400.236" y="398.332"/>
      <point x="393" y="392.917"/>
      <point x="393" y="376.204" type="curve" smooth="yes"/>
    </contour>
  </outline>
</glyph>
<glyph name="si_U" format="1">
  <advance width="521"/>
  <unicode hex="0D8B"/>
  <outline>
    <contour>
      <point x="93.001" y="497" type="line"/>
      <point x="426" y="497" type="line" smooth="yes"/>
      <point x="466.666" y="497"/>
      <point x="491.001" y="478.366"/>
      <point x="491.001" y="438" type="curve" smooth="yes"/>
      <point x="491.001" y="253" type="line"/>
      <point x="176.995" y="253" type="line" smooth="yes"/>
      <point x="149.411" y="253"/>
      <point x="146" y="249.809"/>
      <point x="146" y="222" type="curve" smooth="yes"/>
      <point x="146" y="-20" type="line" smooth="yes"/>
      <point x="146" y="-38.667"/>
      <point x="149.333" y="-43"/>
      <point x="168" y="-43" type="curve" smooth="yes"/>
      <point x="351" y="-43" type="line" smooth="yes"/>
      <point x="367.666" y="-43"/>
      <point x="369.995" y="-36.333"/>
      <point x="369.995" y="-23" type="curve" smooth="yes"/>
      <point x="369.995" y="97.9863" type="line"/>
      <point x="494.001" y="97.9863" type="line"/>
      <point x="494.001" y="-92" type="line" smooth="yes"/>
      <point x="494.001" y="-138.04"/>
      <point x="474.334" y="-153"/>
      <point x="435.001" y="-153" type="curve" smooth="yes"/>
      <point x="76" y="-153" type="line" smooth="yes"/>
      <point x="34.0893" y="-153"/>
      <point x="22.001" y="-122.863"/>
      <point x="22.001" y="-86" type="curve" smooth="yes"/>
      <point x="22.001" y="282.995" type="line" smooth="yes"/>
      <point x="22.001" y="330.995"/>
      <point x="46.668" y="354.994"/>
      <point x="96.001" y="354.995" type="curve" smooth="yes"/>
      <point x="367" y="355" type="line"/>
      <point x="367.001" y="378.599" type="line" smooth="yes"/>
      <point x="367" y="387.599"/>
      <point x="364.472" y="393.999"/>
      <point x="351.805" y="393.999" type="curve" smooth="yes"/>
      <point x="93.001" y="393.999" type="line"/>
    </contour>
  </outline>
</glyph>
<glyph name="si_Nga" format="1">
  <advance width="578"/>
  <unicode hex="0D9E"/>
  <outline>
    <contour>
      <point x="2" y="421.788" type="line" smooth="yes"/>
      <point x="2" y="452.455"/>
      <point x="22.453" y="470.788"/>
      <point x="58.6084" y="470.791" type="curve" smooth="yes"/>
      <point x="277" y="470.808" type="line" smooth="yes"/>
      <point x="315.2" y="470.801"/>
      <point x="349" y="457.626"/>
      <point x="349" y="406.998" type="curve" smooth="yes"/>
      <point x="349" y="206.602" type="line"/>
      <point x="231.197" y="206.602" type="line" smooth="yes"/>
      <point x="215.864" y="206.602"/>
      <point x="208.197" y="200.935"/>
      <point x="208.197" y="189.602" type="curve" smooth="yes"/>
      <point x="208.197" y="130" type="line" smooth="yes"/>
      <point x="208.197" y="114.667"/>
      <point x="214.197" y="107"/>
      <point x="227.001" y="107" type="curve" smooth="yes"/>
      <point x="244" y="107" type="line" smooth="yes"/>
      <point x="258.197" y="107"/>
      <point x="266" y="115.333"/>
      <point x="266" y="132" type="curve" smooth="yes"/>
      <point x="266" y="166" type="line"/>
      <point x="365.596" y="166" type="line"/>
      <point x="365.596" y="134" type="line" smooth="yes"/>
      <point x="365.596" y="116"/>
      <point x="373.262" y="107"/>
      <point x="388.596" y="107" type="curve" smooth="yes"/>
      <point x="406.194" y="107" type="line" smooth="yes"/>
      <point x="417.527" y="107"/>
      <point x="423.194" y="114"/>
      <point x="423.194" y="128" type="curve" smooth="yes"/>
      <point x="423.194" y="479" type="line" smooth="yes"/>
      <point x="423.194" y="503.852"/>
      <point x="416.081" y="510"/>
      <point x="392.197" y="510" type="curve" smooth="yes"/>
      <point x="84.1982" y="510" type="line"/>
      <point x="84.1982" y="626" type="line"/>
      <point x="474.197" y="626" type="line" smooth="yes"/>
      <point x="516.506" y="626"/>
      <point x="547.195" y="609.264"/>
      <point x="547.195" y="560" type="curve" smooth="yes"/>
      <point x="547.195" y="50" type="line" smooth="yes"/>
      <point x="547.195" y="19.6377"/>
      <point x="533.594" y="0"/>
      <point x="500.197" y="0" type="curve" smooth="yes"/>
      <point x="364" y="0" type="line" smooth="yes"/>
      <point x="338" y="0"/>
      <point x="321.666" y="12.333"/>
      <point x="315" y="37" type="curve"/>
      <point x="311.826" y="16.3779"/>
      <point x="291.197" y="0"/>
      <point x="268" y="0" type="curve" smooth="yes"/>
      <point x="132.195" y="0" type="line" smooth="yes"/>
      <point x="95.1973" y="0"/>
      <point x="84.1973" y="16.2734"/>
      <point x="84.1973" y="54" type="curve" smooth="yes"/>
      <point x="84.1973" y="218.75" type="line" smooth="yes"/>
      <point x="84.1973" y="252.177"/>
      <point x="102.38" y="277.757"/>
      <point x="140.197" y="277.757" type="curve" smooth="yes"/>
      <point x="244" y="277.757" type="line"/>
      <point x="244" y="391" type="line" smooth="yes"/>
      <point x="244" y="402.258"/>
      <point x="237.529" y="408.191"/>
      <point x="223" y="408.191" type="curve" smooth="yes"/>
      <point x="191.078" y="408.191" type="line" smooth="yes"/>
      <point x="196.474" y="406.989"/>
      <point x="200" y="403.722"/>
      <point x="200" y="397" type="curve" smooth="yes"/>
      <point x="200" y="344" type="line" smooth="yes"/>
      <point x="200" y="324.761"/>
      <point x="187.471" y="315.804"/>
      <point x="172" y="315.804" type="curve" smooth="yes"/>
      <point x="48" y="315.804" type="line" smooth="yes"/>
      <point x="17" y="315.804"/>
      <point x="2" y="331.471"/>
      <point x="2" y="362.804" type="curve" smooth="yes"/>
    </contour>
    <contour>
      <point x="67" y="402" type="curve" smooth="yes"/>
      <point x="67" y="378" type="line" smooth="yes"/>
      <point x="67" y="374"/>
      <point x="70" y="372"/>
      <point x="74" y="372" type="curve" smooth="yes"/>
      <point x="128.192" y="372" type="line" smooth="yes"/>
      <point x="131.192" y="372"/>
      <point x="134.192" y="375"/>
      <point x="134.192" y="378" type="curve" smooth="yes"/>
      <point x="134.192" y="398.8" type="line" smooth="yes"/>
      <point x="134.192" y="404.521"/>
      <point x="131.103" y="407.424"/>
      <point x="127.048" y="408.191" type="curve" smooth="yes"/>
      <point x="73" y="408.191" type="line" smooth="yes"/>
      <point x="70" y="408.191"/>
      <point x="67" y="405.591"/>
    </contour>
  </outline>
</glyph>
<glyph name="si_Nndda" format="1">
  <advance width="700"/>
  <unicode hex="0DAC"/>
  <outline>
    <contour>
      <point x="158.998" y="384.001" type="line" smooth="yes"/>
      <point x="146.598" y="384.001"/>
      <point x="140.001" y="378"/>
      <point x="140.001" y="360" type="curve" smooth="yes"/>
      <point x="140.001" y="0" type="line"/>
      <point x="22" y="0" type="line"/>
      <point x="22" y="379.001" type="line" smooth="yes"/>
      <point x="22" y="432.609"/>
      <point x="56.2471" y="470.001"/>
      <point x="108.4" y="470.001" type="curve" smooth="yes"/>
      <point x="255.002" y="470" type="line"/>
      <point x="214" y="384" type="line"/>
    </contour>
    <component base="si_Dda" xOffset="184.8" yOffset="4.47035e-08"/>
  </outline>
</glyph>
<glyph name="si_Ya" format="1">
  <advance width="564"/>
  <unicode hex="0DBA"/>
  <outline>
    <contour>
      <point x="235.172" y="497" type="line"/>
      <point x="235.172" y="394" type="line"/>
      <point x="166.4" y="394" type="line" smooth="yes"/>
      <point x="151.067" y="394"/>
      <point x="146" y="384.809"/>
      <point x="146" y="368" type="curve" smooth="yes"/>
      <point x="146" y="130" type="line" smooth="yes"/>
      <point x="146" y="114.667"/>
      <point x="152" y="107"/>
      <point x="164" y="107" type="curve" smooth="yes"/>
      <point x="196" y="107" type="line" smooth="yes"/>
      <point x="213.333" y="107"/>
      <point x="222" y="115.667"/>
      <point x="222" y="133" type="curve" smooth="yes"/>
      <point x="222" y="190" type="line"/>
      <point x="334" y="190" type="line"/>
      <point x="334" y="133" type="line" smooth="yes"/>
      <point x="334" y="115.667"/>
      <point x="343" y="107"/>
      <point x="361" y="107" type="curve" smooth="yes"/>
      <point x="392" y="107" type="line" smooth="yes"/>
      <point x="404" y="107"/>
      <point x="410" y="114.667"/>
      <point x="410" y="130" type="curve" smooth="yes"/>
      <point x="410" y="236" type="line" smooth="yes"/>
      <point x="410" y="247.333"/>
      <point x="402.333" y="253"/>
      <point x="387" y="253" type="curve" smooth="yes"/>
      <point x="270.979" y="253" type="line"/>
      <point x="270.979" y="436" type="line" smooth="yes"/>
      <point x="270.979" y="473.775"/>
      <point x="295.356" y="497"/>
      <point x="342.979" y="497" type="curve" smooth="yes"/>
      <point x="533" y="497" type="line"/>
      <point x="533" y="394" type="line"/>
      <point x="405.396" y="394" type="line" smooth="yes"/>
      <point x="391.396" y="394"/>
      <point x="384.396" y="389"/>
      <point x="384.396" y="379" type="curve" smooth="yes"/>
      <point x="384.396" y="356" type="line"/>
      <point x="470" y="356" type="line" smooth="yes"/>
      <point x="513.529" y="356"/>
      <point x="534" y="339.26"/>
      <point x="534" y="296" type="curve" smooth="yes"/>
      <point x="534" y="54" type="line" smooth="yes"/>
      <point x="534" y="16.2703"/>
      <point x="521.075" y="0"/>
      <point x="484" y="0" type="curve" smooth="yes"/>
      <point x="331" y="0" type="line" smooth="yes"/>
      <point x="304.431" y="0"/>
      <point x="278" y="19.8811"/>
      <point x="278" y="46" type="curve"/>
      <point x="278" y="19.8848"/>
      <point x="251.562" y="0"/>
      <point x="225" y="0" type="curve" smooth="yes"/>
      <point x="72" y="0" type="line" smooth="yes"/>
      <point x="34.9277" y="0"/>
      <point x="22" y="16.273"/>
      <point x="22" y="54" type="curve" smooth="yes"/>
      <point x="22" y="437.999" type="line" smooth="yes"/>
      <point x="22" y="468.273"/>
      <point x="34.9551" y="497"/>
      <point x="78.001" y="497" type="curve" smooth="yes"/>
    </contour>
  </outline>
</glyph>
<glyph name="si_MatraAa" format="1">
  <advance width="231"/>
  <unicode hex="0DCF"/>
  <outline>
    <contour>
      <point x="21" y="497" type="line"/>
      <point x="160" y="497" type="line" smooth="yes"/>
      <point x="189.995" y="497"/>
      <point x="201" y="482.087"/>
      <point x="201" y="455.003" type="curve" smooth="yes"/>
      <point x="201" y="38" type="line" smooth="yes"/>
      <point x="201" y="12.6667"/>
      <point x="187.333" y="0"/>
      <point x="160" y="0" type="curve" smooth="yes"/>
      <point x="21" y="0" type="line"/>
      <point x="21" y="107" type="line"/>
      <point x="58.999" y="107" type="line" smooth="yes"/>
      <point x="71.8774" y="107"/>
      <point x="77" y="113.317"/>
      <point x="77" y="126.197" type="curve" smooth="yes"/>
      <point x="77" y="377" type="line" smooth="yes"/>
      <point x="77" y="388.333"/>
      <point x="71" y="394"/>
      <point x="59" y="394" type="curve" smooth="yes"/>
      <point x="21" y="394" type="line"/>
    </contour>
  </outline>
</glyph>
<glyph name="si_MatraAae" format="1">
  <advance width="248"/>
  <unicode hex="0DD1"/>
  <outline>
    <contour>
      <point x="22.001" y="497" type="line"/>
      <point x="218" y="497" type="line"/>
      <point x="218" y="399.802" type="line"/>
      <point x="145.001" y="355.794" type="line"/>
      <point x="218" y="355.794" type="line"/>
      <point x="218" y="270.794" type="line"/>
      <point x="160.599" y="204.398" type="line" smooth="yes"/>
      <point x="147.687" y="188.027"/>
      <point x="145.999" y="174.667"/>
      <point x="145.999" y="156" type="curve" smooth="yes"/>
      <point x="145.999" y="126.001" type="line" smooth="yes"/>
      <point x="145.999" y="108.977"/>
      <point x="146.376" y="107.001"/>
      <point x="162.999" y="107.001" type="curve" smooth="yes"/>
      <point x="218" y="107.001" type="line"/>
      <point x="218" y="0.000976562" type="line"/>
      <point x="52.001" y="0.000976562" type="line" smooth="yes"/>
      <point x="32.001" y="0.000976562"/>
      <point x="22.0012" y="12.001"/>
      <point x="22.001" y="36.001" type="curve" smooth="yes"/>
      <point x="22" y="156" type="line" smooth="yes"/>
      <point x="22" y="180.667"/>
      <point x="25.0441" y="198.06"/>
      <point x="41.6025" y="216.398" type="curve" smooth="yes"/>
      <point x="90.001" y="263.794" type="line"/>
      <point x="22.001" y="263.794" type="line"/>
      <point x="22.001" y="352.794" type="line"/>
      <point x="83.001" y="395" type="line"/>
      <point x="22.001" y="395" type="line"/>
    </contour>
  </outline>
</glyph>
<glyph name="si_MatraE" format="1">
  <advance width="376"/>
  <unicode hex="0DD9"/>
  <outline>
    <contour>
      <point x="341" y="497" type="line"/>
      <point x="75" y="497" type="line" smooth="yes"/>
      <point x="41.7041" y="497"/>
      <point x="22" y="477.081"/>
      <point x="22" y="445" type="curve" smooth="yes"/>
      <point x="22" y="46" type="line" smooth="yes"/>
      <point x="22" y="17.8145"/>
      <point x="35.5401" y="0"/>
      <point x="68" y="0" type="curve" smooth="yes"/>
      <point x="295.199" y="0" type="line" smooth="yes"/>
      <point x="328.548" y="0"/>
      <point x="346" y="19.123"/>
      <point x="346" y="48.6006" type="curve" smooth="yes"/>
      <point x="346" y="275.594" type="line" smooth="yes"/>
      <point x="346" y="308.498"/>
      <point x="329.158" y="325.594"/>
      <point x="293" y="325.594" type="curve" smooth="yes"/>
      <point x="183" y="325.594" type="line"/>
      <point x="183" y="226.594" type="line"/>
      <point x="203" y="226.594" type="line" smooth="yes"/>
      <point x="218.586" y="226.594"/>
      <point x="222" y="222.032"/>
      <point x="222" y="205.593" type="curve" smooth="yes"/>
      <point x="222" y="126" type="line" smooth="yes"/>
      <point x="222" y="112"/>
      <point x="216.321" y="107"/>
      <point x="204" y="107" type="curve" smooth="yes"/>
      <point x="164" y="107" type="line" smooth="yes"/>
      <point x="151.333" y="107"/>
      <point x="146" y="111.333"/>
      <point x="146" y="126" type="curve" smooth="yes"/>
      <point x="146" y="373.802" type="line" smooth="yes"/>
      <point x="146" y="389.136"/>
      <point x="151.146" y="394"/>
      <point x="168.8" y="394" type="curve" smooth="yes"/>
      <point x="341" y="393.999" type="line"/>
    </contour>
  </outline>
</glyph>
<glyph name="si_DAa.halant" format="1">
  <advance width="614"/>
  <outline>
    <contour>
      <point x="226" y="10" type="line"/>
      <point x="221.411" y="1.76953"/>
      <point x="213" y="1"/>
      <point x="204" y="0" type="curve" smooth="yes"/>
      <point x="66" y="0" type="line" smooth="yes"/>
      <point x="32" y="0"/>
      <point x="22" y="17.9258"/>
      <point x="22" y="49.5996" type="curve" smooth="yes"/>
      <point x="22" y="298" type="line" smooth="yes"/>
      <point x="22" y="338.656"/>
      <point x="43.1064" y="355"/>
      <point x="80" y="355" type="curve" smooth="yes"/>
      <point x="301" y="355" type="line"/>
      <point x="300.999" y="378" type="line" smooth="yes"/>
      <point x="300.998" y="391.309"/>
      <point x="296.338" y="394.001"/>
      <point x="287.005" y="394.001" type="curve" smooth="yes"/>
      <point x="22" y="394.001" type="line"/>
      <point x="22" y="497.001" type="line"/>
      <point x="372" y="497" type="line" smooth="yes"/>
      <point x="405.564" y="497"/>
      <point x="425" y="480.913"/>
      <point x="425" y="444" type="curve" smooth="yes"/>
      <point x="425" y="253.001" type="line"/>
      <point x="168" y="253" type="line" smooth="yes"/>
      <point x="151.333" y="253"/>
      <point x="146" y="245.668"/>
      <point x="146" y="231.001" type="curve" smooth="yes"/>
      <point x="146" y="133.001" type="line" smooth="yes"/>
      <point x="146" y="113.159"/>
      <point x="151.048" y="107"/>
      <point x="166.2" y="107" type="curve" smooth="yes"/>
      <point x="265" y="107" type="line" smooth="yes"/>
      <point x="279.193" y="107"/>
      <point x="285.082" y="117.504"/>
      <point x="289" y="123" type="curve"/>
    </contour>
    <contour>
      <point x="453.393" y="-36" type="line" smooth="yes"/>
      <point x="453.393" y="-24.709"/>
      <point x="447.392" y="-20"/>
      <point x="436.396" y="-20" type="curve" smooth="yes"/>
      <point x="342" y="-20" type="line"/>
      <point x="342" y="-20" type="line"/>
      <point x="207" y="-20" type="line"/>
      <point x="299" y="141" type="line"/>
      <point x="428" y="141" type="line"/>
      <point x="379" y="54" type="line"/>
      <point x="545.396" y="54" type="line" smooth="yes"/>
      <point x="571.396" y="54"/>
      <point x="582.393" y="41"/>
      <point x="582.393" y="17" type="curve" smooth="yes"/>
      <point x="582.393" y="-125.399" type="line" smooth="yes"/>
      <point x="582.393" y="-159.018"/>
      <point x="558.58" y="-171"/>
      <point x="530.393" y="-171" type="curve" smooth="yes"/>
      <point x="160" y="-171" type="line"/>
      <point x="160" y="-64" type="line"/>
      <point x="432.393" y="-64" type="line" smooth="yes"/>
      <point x="445.361" y="-64"/>
      <point x="453.393" y="-59.1377"/>
      <point x="453.393" y="-46" type="curve" smooth="yes"/>
    </contour>
    <contour>
      <point x="458.199" y="46.3965" type="line"/>
      <point x="458.199" y="649" type="line"/>
      <point x="582.401" y="649" type="line"/>
      <point x="582.401" y="-20" type="line"/>
      <point x="577.734" y="-12.667"/>
      <point x="562.319" y="16.6357"/>
      <point x="550.401" y="24.791" type="curve" smooth="yes"/>
      <point x="537.945" y="33.3154"/>
      <point x="518.903" y="46.3965"/>
      <point x="493.401" y="46.3965" type="curve" smooth="yes"/>
    </contour>
  </outline>
</glyph>
<glyph name="si_DAae" format="1">
  <advance width="530"/>
  <outline>
    <contour>
      <point x="386.391" y="143" type="line"/>
      <point x="518.998" y="143" type="line"/>
      <point x="495.404" y="98" type="line"/>
      <point x="418" y="52.001" type="line"/>
      <point x="471" y="52" type="line"/>
      <point x="451.191" y="14" type="line"/>
      <point x="451.191" y="14"/>
      <point x="418" y="-6"/>
      <point x="407" y="-27" type="curve" smooth="yes"/>
      <point x="399" y="-42" type="line" smooth="yes"/>
      <point x="393.113" y="-53.0375"/>
      <point x="387" y="-64.2207"/>
      <point x="387" y="-69" type="curve" smooth="yes"/>
      <point x="387" y="-72.1387"/>
      <point x="387.281" y="-77.998"/>
      <point x="396" y="-77.998" type="curve" smooth="yes"/>
      <point x="484.999" y="-78" type="line"/>
      <point x="485" y="-184" type="line"/>
      <point x="283.199" y="-184" type="line"/>
      <point x="274.215" y="-181.562"/>
      <point x="255.001" y="-164.02"/>
      <point x="255.001" y="-140" type="curve" smooth="yes"/>
      <point x="255.001" y="-127" type="line" smooth="yes"/>
      <point x="255.001" y="-105.348"/>
      <point x="266.229" y="-86.0987"/>
      <point x="272" y="-75" type="curve" smooth="yes"/>
      <point x="298" y="-25" type="line" smooth="yes"/>
      <point x="312" y="1"/>
      <point x="363.052" y="15"/>
      <point x="363.052" y="15" type="curve"/>
      <point x="320" y="15" type="line"/>
      <point x="337.591" y="50" type="line"/>
      <point x="417.206" y="96.999" type="line"/>
      <point x="362.253" y="97" type="line"/>
    </contour>
    <contour>
      <point x="233.391" y="143" type="line"/>
      <point x="365.998" y="143" type="line"/>
      <point x="252.796" y="-74" type="line" smooth="yes"/>
      <point x="238.68" y="-101.059"/>
      <point x="236.003" y="-107.863"/>
      <point x="236.003" y="-127" type="curve" smooth="yes"/>
      <point x="236.003" y="-143" type="line" smooth="yes"/>
      <point x="236.003" y="-162.28"/>
      <point x="245.031" y="-175.1"/>
      <point x="257" y="-184" type="curve"/>
      <point x="126.796" y="-184" type="line"/>
      <point x="117.812" y="-181.562"/>
      <point x="109.796" y="-164.337"/>
      <point x="109.796" y="-140" type="curve" smooth="yes"/>
      <point x="109.796" y="-111" type="line" smooth="yes"/>
      <point x="109.796" y="-86.5557"/>
      <point x="122.524" y="-66.8428"/>
      <point x="128.796" y="-56" type="curve" smooth="yes"/>
    </contour>
    <contour>
      <point x="165.789" y="10" type="line"/>
      <point x="161.2" y="1.76953"/>
      <point x="152.789" y="1"/>
      <point x="143.789" y="0" type="curve" smooth="yes"/>
      <point x="66" y="0" type="line" smooth="yes"/>
      <point x="32" y="0"/>
      <point x="22" y="17.9258"/>
      <point x="22" y="49.5996" type="curve" smooth="yes"/>
      <point x="22" y="298" type="line" smooth="yes"/>
      <point x="22" y="338.656"/>
      <point x="43.1064" y="355"/>
      <point x="80" y="355" type="curve" smooth="yes"/>
      <point x="301" y="355" type="line"/>
      <point x="300.999" y="378" type="line" smooth="yes"/>
      <point x="300.998" y="391.309"/>
      <point x="296.338" y="394.001"/>
      <point x="287.005" y="394.001" type="curve" smooth="yes"/>
      <point x="22" y="394.001" type="line"/>
      <point x="22" y="497.001" type="line"/>
      <point x="372" y="497" type="line" smooth="yes"/>
      <point x="405.564" y="497"/>
      <point x="425" y="480.913"/>
      <point x="425" y="444" type="curve" smooth="yes"/>
      <point x="425" y="253.001" type="line"/>
      <point x="168" y="253" type="line" smooth="yes"/>
      <point x="151.333" y="253"/>
      <point x="146" y="245.668"/>
      <point x="146" y="231.001" type="curve" smooth="yes"/>
      <point x="146" y="133.001" type="line" smooth="yes"/>
      <point x="146" y="113.159"/>
      <point x="151.048" y="107"/>
      <point x="166.2" y="107" type="curve" smooth="yes"/>
      <point x="198.583" y="107" type="line" smooth="yes"/>
      <point x="212.776" y="107"/>
      <point x="218.665" y="117.504"/>
      <point x="222.583" y="123" type="curve"/>
    </contour>
  </outline>
</glyph>
<glyph name="si_DVa" format="1">
  <advance width="678"/>
  <outline>
    <contour>
      <point x="158.998" y="367.001" type="line" smooth="yes"/>
      <point x="146.598" y="367.001"/>
      <point x="140.001" y="361"/>
      <point x="140.001" y="343" type="curve" smooth="yes"/>
      <point x="140.001" y="-0.000976562" type="line"/>
      <point x="22" y="-0.000976562" type="line"/>
      <point x="22" y="379.001" type="line" smooth="yes"/>
      <point x="22" y="432.545"/>
      <point x="56.2471" y="470.001"/>
      <point x="108.4" y="470.001" type="curve" smooth="yes"/>
      <point x="255.002" y="470" type="line"/>
      <point x="202.001" y="367" type="line"/>
    </contour>
    <component base="si_Va" xOffset="163"/>
  </outline>
</glyph>
<glyph name="si_Dha.reph" format="1">
  <advance width="515"/>
  <outline>
    <contour>
      <point x="259.198" y="295" type="line"/>
      <point x="156" y="295" type="line" smooth="yes"/>
      <point x="149.064" y="295"/>
      <point x="146.004" y="291.292"/>
      <point x="146.004" y="285.199" type="curve" smooth="yes"/>
      <point x="146.004" y="126" type="line" smooth="yes"/>
      <point x="146.004" y="113.333"/>
      <point x="152.337" y="107"/>
      <point x="165.004" y="107" type="curve" smooth="yes"/>
      <point x="181.803" y="107" type="line" smooth="yes"/>
      <point x="196.469" y="107"/>
      <point x="203.803" y="115.333"/>
      <point x="203.803" y="132" type="curve" smooth="yes"/>
      <point x="203.803" y="244.796" type="line"/>
      <point x="303.398" y="244.796" type="line"/>
      <point x="303.398" y="134" type="line" smooth="yes"/>
      <point x="303.398" y="116"/>
      <point x="311.064" y="107"/>
      <point x="326.398" y="107" type="curve" smooth="yes"/>
      <point x="343.997" y="107" type="line" smooth="yes"/>
      <point x="355.33" y="107"/>
      <point x="360.997" y="114"/>
      <point x="360.997" y="128" type="curve" smooth="yes"/>
      <point x="360.997" y="411.6" type="line" smooth="yes"/>
      <point x="360.997" y="436.451"/>
      <point x="353.884" y="442.6"/>
      <point x="330" y="442.6" type="curve" smooth="yes"/>
      <point x="22.001" y="442.6" type="line"/>
      <point x="22.001" y="558.6" type="line"/>
      <point x="412" y="558.6" type="line" smooth="yes"/>
      <point x="454.309" y="558.6"/>
      <point x="484.998" y="541.863"/>
      <point x="484.998" y="492.6" type="curve" smooth="yes"/>
      <point x="484.998" y="50" type="line" smooth="yes"/>
      <point x="484.998" y="19.6377"/>
      <point x="471.396" y="-0"/>
      <point x="438" y="0" type="curve" smooth="yes"/>
      <point x="301.803" y="0" type="line" smooth="yes"/>
      <point x="275.803" y="0"/>
      <point x="259.469" y="12.333"/>
      <point x="252.803" y="37" type="curve"/>
      <point x="249.629" y="16.3779"/>
      <point x="229.072" y="0"/>
      <point x="205.803" y="0" type="curve" smooth="yes"/>
      <point x="69" y="0" type="line" smooth="yes"/>
      <point x="37.6094" y="0"/>
      <point x="22" y="15.0176"/>
      <point x="22" y="48" type="curve" smooth="yes"/>
      <point x="22" y="337.601" type="line" smooth="yes"/>
      <point x="22" y="376.155"/>
      <point x="40.0205" y="402.601"/>
      <point x="81" y="402.601" type="curve" smooth="yes"/>
      <point x="259.197" y="402.601" type="line"/>
    </contour>
    <contour>
      <point x="213.593" y="628" type="line"/>
      <point x="297.802" y="628" type="line"/>
      <point x="297.802" y="590.188" type="line" smooth="yes"/>
      <point x="297.802" y="563.011"/>
      <point x="286.311" y="553.188"/>
      <point x="266.802" y="553.188" type="curve" smooth="yes"/>
      <point x="94.8018" y="553.188" type="line" smooth="yes"/>
      <point x="68.332" y="553.188"/>
      <point x="54.8018" y="567.084"/>
      <point x="54.8018" y="599.188" type="curve" smooth="yes"/>
      <point x="54.8018" y="669" type="line" smooth="yes"/>
      <point x="54.8018" y="697.736"/>
      <point x="72.0508" y="717"/>
      <point x="108.802" y="717" type="curve" smooth="yes"/>
      <point x="393.802" y="717" type="line" smooth="yes"/>
      <point x="427.247" y="717"/>
      <point x="444.802" y="700.164"/>
      <point x="444.802" y="661" type="curve" smooth="yes"/>
      <point x="444.802" y="575.198" type="line"/>
      <point x="331.802" y="575.198" type="line"/>
      <point x="331.802" y="630" type="line" smooth="yes"/>
      <point x="331.802" y="645.321"/>
      <point x="326.469" y="653"/>
      <point x="315.802" y="653" type="curve" smooth="yes"/>
      <point x="182.802" y="653" type="line" smooth="yes"/>
      <point x="172.135" y="653"/>
      <point x="166.802" y="648.667"/>
      <point x="166.802" y="640" type="curve" smooth="yes"/>
      <point x="166.802" y="612" type="line" smooth="yes"/>
      <point x="166.802" y="603.333"/>
      <point x="170.521" y="599"/>
      <point x="178.802" y="599" type="curve" smooth="yes"/>
      <point x="200.802" y="599" type="line" smooth="yes"/>
      <point x="212.066" y="599"/>
      <point x="213.593" y="604.333"/>
      <point x="213.593" y="615" type="curve" smooth="yes"/>
    </contour>
  </outline>
</glyph>
<glyph name="si_FI" format="1">
  <advance width="564"/>
  <outline>
    <contour>
      <point x="24" y="511" type="line"/>
      <point x="24" y="595.803" type="line" smooth="yes"/>
      <point x="24" y="625.797"/>
      <point x="40.916" y="640"/>
      <point x="68" y="640" type="curve" smooth="yes"/>
      <point x="490.201" y="640" type="line" smooth="yes"/>
      <point x="515.534" y="640"/>
      <point x="531.201" y="628.565"/>
      <point x="531.201" y="597" type="curve" smooth="yes"/>
      <point x="531.201" y="511" type="line"/>
      <point x="407.196" y="511" type="line"/>
      <point x="407.196" y="528" type="line" smooth="yes"/>
      <point x="407.196" y="540.878"/>
      <point x="406.48" y="546.001"/>
      <point x="393.601" y="546.001" type="curve" smooth="yes"/>
      <point x="161" y="546.001" type="line" smooth="yes"/>
      <point x="149.667" y="546.001"/>
      <point x="148.005" y="540.001"/>
      <point x="148.005" y="528.001" type="curve" smooth="yes"/>
      <point x="148.005" y="511" type="line"/>
    </contour>
    <component base="si_Fa"/>
  </outline>
</glyph>
<glyph name="si_GhIi" format="1">
  <advance width="564"/>
  <outline>
    <contour>
      <point x="383.994" y="582.198" type="line" smooth="yes"/>
      <point x="373.994" y="582.198"/>
      <point x="368.994" y="578.198"/>
      <point x="368.994" y="570.198" type="curve" smooth="yes"/>
      <point x="368.994" y="562.011" type="line" smooth="yes"/>
      <point x="368.994" y="553.344"/>
      <point x="374.327" y="549.011"/>
      <point x="384.994" y="549.011" type="curve" smooth="yes"/>
      <point x="425.994" y="549.011" type="line" smooth="yes"/>
      <point x="436.661" y="549.011"/>
      <point x="441.994" y="553.678"/>
      <point x="441.994" y="563.011" type="curve" smooth="yes"/>
      <point x="441.994" y="570.198" type="line" smooth="yes"/>
      <point x="441.994" y="578.198"/>
      <point x="436.327" y="582.198"/>
      <point x="424.994" y="582.198" type="curve" smooth="yes"/>
    </contour>
    <contour>
      <point x="160.397" y="546.001" type="line" smooth="yes"/>
      <point x="149.407" y="546"/>
      <point x="147.402" y="540.001"/>
      <point x="147.402" y="528.001" type="curve" smooth="yes"/>
      <point x="147.402" y="511" type="line"/>
      <point x="23.3975" y="511" type="line"/>
      <point x="23.3975" y="595.803" type="line" smooth="yes"/>
      <point x="23.3975" y="625.797"/>
      <point x="39.6172" y="640.011"/>
      <point x="66.6074" y="640.011" type="curve" smooth="yes"/>
      <point x="492.195" y="640.012" type="line" smooth="yes"/>
      <point x="519.675" y="640.012"/>
      <point x="533.994" y="626.66"/>
      <point x="533.994" y="600" type="curve" smooth="yes"/>
      <point x="533.994" y="540.996" type="line" smooth="yes"/>
      <point x="533.994" y="521"/>
      <point x="523.992" y="510.996"/>
      <point x="503.994" y="510.996" type="curve" smooth="yes"/>
      <point x="303.994" y="510.994" type="line" smooth="yes"/>
      <point x="280.719" y="510.994"/>
      <point x="275.994" y="520.251"/>
      <point x="275.994" y="531.996" type="curve" smooth="yes"/>
      <point x="275.994" y="537.993" type="line" smooth="yes"/>
      <point x="275.994" y="542.524"/>
      <point x="276.812" y="545.002"/>
      <point x="278.394" y="545.993" type="curve"/>
    </contour>
    <component base="si_Gha"/>
  </outline>
</glyph>
<glyph name="si_JIi" format="1">
  <advance width="513"/>
  <outline>
    <contour>
      <point x="252.587" y="564" type="curve" smooth="yes"/>
      <point x="252.587" y="546" type="line" smooth="yes"/>
      <point x="252.587" y="542"/>
      <point x="255.938" y="540"/>
      <point x="262.587" y="540" type="curve" smooth="yes"/>
      <point x="290" y="540" type="line" smooth="yes"/>
      <point x="296" y="540"/>
      <point x="299" y="542.333"/>
      <point x="299" y="547" type="curve" smooth="yes"/>
      <point x="299" y="564" type="line" smooth="yes"/>
      <point x="299" y="568.667"/>
      <point x="296" y="571"/>
      <point x="290" y="571" type="curve" smooth="yes"/>
      <point x="261.587" y="571" type="line" smooth="yes"/>
      <point x="255.603" y="571"/>
      <point x="252.587" y="568.667"/>
    </contour>
    <contour>
      <point x="324" y="507" type="curve" smooth="yes"/>
      <point x="218" y="507" type="line" smooth="yes"/>
      <point x="207" y="507"/>
      <point x="201" y="513"/>
      <point x="201" y="525" type="curve" smooth="yes"/>
      <point x="201" y="559" type="line"/>
      <point x="201" y="559" type="line"/>
      <point x="172" y="559" type="line" smooth="yes"/>
      <point x="160.667" y="559"/>
      <point x="155" y="553"/>
      <point x="155" y="541" type="curve" smooth="yes"/>
      <point x="155" y="507" type="line"/>
      <point x="40" y="507" type="line"/>
      <point x="40" y="600.792" type="line" smooth="yes"/>
      <point x="40" y="625.454"/>
      <point x="61.7109" y="644.792"/>
      <point x="86" y="644.792" type="curve" smooth="yes"/>
      <point x="306" y="644.792" type="line" smooth="yes"/>
      <point x="331.432" y="644.792"/>
      <point x="350.113" y="631.85"/>
      <point x="350.188" y="599" type="curve" smooth="yes"/>
      <point x="350.347" y="530" type="line" smooth="yes"/>
      <point x="350" y="517"/>
      <point x="337" y="507"/>
    </contour>
    <component base="si_Ja"/>
  </outline>
</glyph>
<glyph name="si_Jh.halant" format="1">
  <advance width="912"/>
  <outline>
    <contour>
      <point x="881" y="400" type="line"/>
      <point x="757" y="400" type="line"/>
      <point x="757" y="441" type="line" smooth="yes"/>
      <point x="757" y="459.349"/>
      <point x="750.062" y="464"/>
      <point x="731" y="464" type="curve" smooth="yes"/>
      <point x="425.196" y="464" type="line"/>
      <point x="425" y="550" type="line"/>
      <point x="484.412" y="550" type="line"/>
      <point x="455.079" y="557.333"/>
      <point x="440.412" y="571.667"/>
      <point x="440.412" y="593" type="curve" smooth="yes"/>
      <point x="440.412" y="632" type="line" smooth="yes"/>
      <point x="440.412" y="659.333"/>
      <point x="456.745" y="673"/>
      <point x="489.412" y="673" type="curve" smooth="yes"/>
      <point x="879" y="673" type="line"/>
      <point x="879" y="589" type="line"/>
      <point x="596.412" y="589" type="line" smooth="yes"/>
      <point x="578.412" y="589"/>
      <point x="569.412" y="584.333"/>
      <point x="569.412" y="575" type="curve" smooth="yes"/>
      <point x="569.412" y="565.227"/>
      <point x="577.338" y="558"/>
      <point x="587.412" y="558" type="curve" smooth="yes"/>
      <point x="812" y="558" type="line" smooth="yes"/>
      <point x="867.441" y="558"/>
      <point x="881" y="533.687"/>
      <point x="881" y="477" type="curve" smooth="yes"/>
    </contour>
    <contour>
      <point x="880.998" y="415" type="line"/>
      <point x="880.998" y="49" type="line" smooth="yes"/>
      <point x="880.998" y="16.6826"/>
      <point x="867.396" y="0"/>
      <point x="834" y="0" type="curve" smooth="yes"/>
      <point x="697.803" y="0" type="line" smooth="yes"/>
      <point x="671.803" y="0"/>
      <point x="655.469" y="12.333"/>
      <point x="648.803" y="37" type="curve"/>
      <point x="645.629" y="16.3779"/>
      <point x="625.072" y="0"/>
      <point x="601.803" y="0" type="curve" smooth="yes"/>
      <point x="465" y="0" type="line" smooth="yes"/>
      <point x="433.609" y="0"/>
      <point x="418" y="15.0176"/>
      <point x="418" y="48" type="curve" smooth="yes"/>
      <point x="418" y="326.606" type="line" smooth="yes"/>
      <point x="418" y="365.161"/>
      <point x="436.021" y="391.606"/>
      <point x="477" y="391.606" type="curve" smooth="yes"/>
      <point x="598.999" y="391.606" type="line"/>
      <point x="599" y="284.006" type="line"/>
      <point x="552" y="284.006" type="line" smooth="yes"/>
      <point x="545.064" y="284.006"/>
      <point x="542.004" y="280.298"/>
      <point x="542.004" y="274.205" type="curve" smooth="yes"/>
      <point x="542.004" y="126" type="line" smooth="yes"/>
      <point x="542.004" y="113.333"/>
      <point x="548.337" y="107"/>
      <point x="561.004" y="107" type="curve" smooth="yes"/>
      <point x="577.803" y="107" type="line" smooth="yes"/>
      <point x="592.469" y="107"/>
      <point x="599.803" y="115.333"/>
      <point x="599.803" y="132" type="curve" smooth="yes"/>
      <point x="599.803" y="244.796" type="line"/>
      <point x="699.398" y="244.796" type="line"/>
      <point x="699.398" y="134" type="line" smooth="yes"/>
      <point x="699.398" y="116"/>
      <point x="707.064" y="107"/>
      <point x="722.398" y="107" type="curve" smooth="yes"/>
      <point x="739.997" y="107" type="line" smooth="yes"/>
      <point x="751.33" y="107"/>
      <point x="756.997" y="114"/>
      <point x="756.997" y="128" type="curve" smooth="yes"/>
      <point x="756.997" y="414.998" type="line"/>
    </contour>
    <contour>
      <point x="275.4" y="243" type="line" smooth="yes"/>
      <point x="275.4" y="255.665"/>
      <point x="270.4" y="262"/>
      <point x="260.4" y="262" type="curve" smooth="yes"/>
      <point x="145" y="262" type="line"/>
      <point x="115.399" y="236" type="line"/>
      <point x="143.793" y="236" type="line"/>
      <point x="143.996" y="222" type="line"/>
      <point x="138.511" y="218.224"/>
      <point x="131.996" y="204.954"/>
      <point x="131.996" y="180.803" type="curve" smooth="yes"/>
      <point x="131.996" y="127" type="line" smooth="yes"/>
      <point x="131.996" y="109.666"/>
      <point x="134.656" y="107"/>
      <point x="145.996" y="107" type="curve" smooth="yes"/>
      <point x="154.397" y="107" type="line" smooth="yes"/>
      <point x="167.482" y="107"/>
      <point x="169.397" y="112.667"/>
      <point x="169.397" y="124.001" type="curve" smooth="yes"/>
      <point x="169.397" y="188" type="line"/>
      <point x="237.397" y="188" type="line"/>
      <point x="237.397" y="126" type="line" smooth="yes"/>
      <point x="237.397" y="111.333"/>
      <point x="240.106" y="107"/>
      <point x="251.397" y="107" type="curve" smooth="yes"/>
      <point x="262.4" y="107" type="line" smooth="yes"/>
      <point x="272.605" y="107"/>
      <point x="275.4" y="111.803"/>
      <point x="275.4" y="129.802" type="curve" smooth="yes"/>
    </contour>
    <contour>
      <point x="11.9971" y="203.002" type="line"/>
      <point x="11.9971" y="276.397" type="line"/>
      <point x="11.9971" y="276.397"/>
      <point x="87.4082" y="342.001"/>
      <point x="130.608" y="380.401" type="curve"/>
      <point x="130.608" y="381.999" type="line" smooth="yes"/>
      <point x="130.608" y="391.229"/>
      <point x="119.919" y="393.972"/>
      <point x="107.012" y="394.002" type="curve" smooth="yes"/>
      <point x="22" y="394.201" type="line"/>
      <point x="22" y="497.201" type="line"/>
      <point x="185.409" y="497.001" type="line" smooth="yes"/>
      <point x="217.092" y="496.963"/>
      <point x="221.005" y="469.791"/>
      <point x="221.005" y="461.599" type="curve" smooth="yes"/>
      <point x="221.005" y="459.398" type="line"/>
      <point x="243.6" y="475.202" type="line" smooth="yes"/>
      <point x="267.183" y="490.383"/>
      <point x="280.128" y="491.401"/>
      <point x="301" y="491.401" type="curve" smooth="yes"/>
      <point x="308.069" y="491.401"/>
      <point x="335.533" y="486.575"/>
      <point x="351" y="481" type="curve" smooth="yes"/>
      <point x="598.999" y="391.606" type="line"/>
      <point x="433" y="350" type="line" smooth="yes"/>
      <point x="343" y="382.198" type="line" smooth="yes"/>
      <point x="331.382" y="386.588"/>
      <point x="315.375" y="391.201"/>
      <point x="309" y="391.201" type="curve" smooth="yes"/>
      <point x="296.886" y="391.201"/>
      <point x="292.494" y="390.784"/>
      <point x="276.198" y="376.592" type="curve" smooth="yes"/>
      <point x="251.407" y="355.001" type="line"/>
      <point x="331.4" y="355.001" type="line" smooth="yes"/>
      <point x="363.213" y="355.001"/>
      <point x="384.4" y="337.696"/>
      <point x="384.4" y="298.001" type="curve" smooth="yes"/>
      <point x="384.4" y="51.001" type="line" smooth="yes"/>
      <point x="384.4" y="14.9551"/>
      <point x="361.045" y="0.000976562"/>
      <point x="331.4" y="0.000976562" type="curve" smooth="yes"/>
      <point x="241.397" y="0.000976562" type="line" smooth="yes"/>
      <point x="222.438" y="0.000976562"/>
      <point x="209.064" y="9.66797"/>
      <point x="204.397" y="29.002" type="curve"/>
      <point x="199.73" y="9.66797"/>
      <point x="183.09" y="0.000976562"/>
      <point x="165.397" y="0.000976562" type="curve" smooth="yes"/>
      <point x="65.9961" y="0.000976562" type="line" smooth="yes"/>
      <point x="34.1328" y="0.000976562"/>
      <point x="22" y="19.8174"/>
      <point x="22" y="50.002" type="curve" smooth="yes"/>
      <point x="22" y="140.201" type="line" smooth="yes"/>
      <point x="22" y="180.996"/>
      <point x="34.2734" y="195.266"/>
      <point x="48" y="203.002" type="curve"/>
    </contour>
  </outline>
</glyph>
<glyph name="si_KSsI" format="1">
  <advance width="920"/>
  <outline>
    <contour>
      <point x="427.604" y="511" type="line"/>
      <point x="427.604" y="595.803" type="line" smooth="yes"/>
      <point x="427.604" y="625.797"/>
      <point x="444.521" y="640"/>
      <point x="471.604" y="640" type="curve" smooth="yes"/>
      <point x="847.608" y="640" type="line" smooth="yes"/>
      <point x="872.941" y="640"/>
      <point x="888.608" y="628.565"/>
      <point x="888.608" y="597" type="curve" smooth="yes"/>
      <point x="888.608" y="511" type="line"/>
      <point x="764.604" y="511" type="line"/>
      <point x="764.604" y="528" type="line" smooth="yes"/>
      <point x="764.604" y="540.878"/>
      <point x="763.888" y="546.001"/>
      <point x="751.008" y="546.001" type="curve" smooth="yes"/>
      <point x="564.604" y="546.001" type="line" smooth="yes"/>
      <point x="553.271" y="546.001"/>
      <point x="551.609" y="540.001"/>
      <point x="551.609" y="528.001" type="curve" smooth="yes"/>
      <point x="551.609" y="511" type="line"/>
    </contour>
    <component base="si_KSsa"/>
  </outline>
</glyph>
<glyph name="si_KSsIi" format="1">
  <advance width="920"/>
  <outline>
    <contour>
      <point x="738.8" y="582.198" type="line" smooth="yes"/>
      <point x="728.8" y="582.198"/>
      <point x="723.8" y="578.198"/>
      <point x="723.8" y="570.198" type="curve" smooth="yes"/>
      <point x="723.8" y="562.011" type="line" smooth="yes"/>
      <point x="723.8" y="553.344"/>
      <point x="729.133" y="549.011"/>
      <point x="739.8" y="549.011" type="curve" smooth="yes"/>
      <point x="780.8" y="549.011" type="line" smooth="yes"/>
      <point x="791.467" y="549.011"/>
      <point x="796.8" y="553.678"/>
      <point x="796.8" y="563.011" type="curve" smooth="yes"/>
      <point x="796.8" y="570.198" type="line" smooth="yes"/>
      <point x="796.8" y="578.198"/>
      <point x="791.133" y="582.198"/>
      <point x="779.8" y="582.198" type="curve" smooth="yes"/>
    </contour>
    <contour>
      <point x="564.797" y="546.001" type="line" smooth="yes"/>
      <point x="553.807" y="546"/>
      <point x="551.802" y="540.001"/>
      <point x="551.802" y="528.001" type="curve" smooth="yes"/>
      <point x="551.802" y="511" type="line"/>
      <point x="427.797" y="511" type="line"/>
      <point x="427.797" y="595.803" type="line" smooth="yes"/>
      <point x="427.797" y="625.797"/>
      <point x="444.017" y="640.011"/>
      <point x="471.007" y="640.011" type="curve" smooth="yes"/>
      <point x="847.001" y="640.012" type="line" smooth="yes"/>
      <point x="874.48" y="640.012"/>
      <point x="888.8" y="626.66"/>
      <point x="888.8" y="600" type="curve" smooth="yes"/>
      <point x="888.8" y="540.996" type="line" smooth="yes"/>
      <point x="888.8" y="521"/>
      <point x="878.798" y="510.996"/>
      <point x="858.8" y="510.996" type="curve" smooth="yes"/>
      <point x="658.8" y="510.994" type="line" smooth="yes"/>
      <point x="635.524" y="510.994"/>
      <point x="630.8" y="520.251"/>
      <point x="630.8" y="531.996" type="curve" smooth="yes"/>
      <point x="630.8" y="537.993" type="line" smooth="yes"/>
      <point x="630.8" y="542.524"/>
      <point x="631.617" y="545.002"/>
      <point x="633.199" y="545.993" type="curve"/>
    </contour>
    <component base="si_KSsa"/>
  </outline>
</glyph>
<glyph name="si_NDRI" format="1">
  <advance width="853"/>
  <outline>
    <contour>
      <point x="419.182" y="511" type="line"/>
      <point x="419.182" y="595.803" type="line" smooth="yes"/>
      <point x="419.182" y="625.797"/>
      <point x="436.098" y="640"/>
      <point x="463.182" y="640" type="curve" smooth="yes"/>
      <point x="780" y="640" type="line" smooth="yes"/>
      <point x="805.333" y="640"/>
      <point x="821" y="628.565"/>
      <point x="821" y="597" type="curve" smooth="yes"/>
      <point x="821" y="511" type="line"/>
      <point x="696.995" y="511" type="line"/>
      <point x="696.995" y="528" type="line" smooth="yes"/>
      <point x="696.995" y="540.878"/>
      <point x="696.279" y="546.001"/>
      <point x="683.399" y="546.001" type="curve" smooth="yes"/>
      <point x="556.182" y="546.001" type="line" smooth="yes"/>
      <point x="544.849" y="546.001"/>
      <point x="543.187" y="540.001"/>
      <point x="543.187" y="528.001" type="curve" smooth="yes"/>
      <point x="543.187" y="511" type="line"/>
    </contour>
    <component base="si_NDRa"/>
  </outline>
</glyph>
<glyph name="si_NVa" format="1">
  <advance width="908"/>
  <outline>
    <contour>
      <point x="878.6" y="415" type="line"/>
      <point x="878.6" y="54" type="line" smooth="yes"/>
      <point x="878.6" y="16.2705"/>
      <point x="865.675" y="0"/>
      <point x="828.6" y="0" type="curve" smooth="yes"/>
      <point x="465.6" y="0" type="line" smooth="yes"/>
      <point x="428.527" y="0"/>
      <point x="415.6" y="16.2734"/>
      <point x="415.6" y="54" type="curve" smooth="yes"/>
      <point x="415.6" y="275.61" type="line" smooth="yes"/>
      <point x="415.6" y="312.277"/>
      <point x="434.267" y="330.61"/>
      <point x="471.6" y="330.61" type="curve" smooth="yes"/>
      <point x="537.6" y="330.61" type="line"/>
      <point x="537.6" y="353.801" type="line" smooth="yes"/>
      <point x="537.6" y="363.134"/>
      <point x="532.214" y="367.038"/>
      <point x="521.6" y="367.801" type="curve" smooth="yes"/>
      <point x="505" y="368.994" type="line"/>
      <point x="430" y="470.193" type="line"/>
      <point x="598.6" y="470" type="line" smooth="yes"/>
      <point x="640.305" y="469.952"/>
      <point x="661.599" y="448.41"/>
      <point x="661.599" y="412" type="curve" smooth="yes"/>
      <point x="661.599" y="236.61" type="line"/>
      <point x="560.6" y="236.61" type="line" smooth="yes"/>
      <point x="546.6" y="236.61"/>
      <point x="539.6" y="230.277"/>
      <point x="539.6" y="217.61" type="curve" smooth="yes"/>
      <point x="539.6" y="129" type="line" smooth="yes"/>
      <point x="539.6" y="114.333"/>
      <point x="545.6" y="107"/>
      <point x="557.6" y="107" type="curve" smooth="yes"/>
      <point x="736.6" y="107" type="line" smooth="yes"/>
      <point x="748.6" y="107"/>
      <point x="754.6" y="114.333"/>
      <point x="754.6" y="129" type="curve" smooth="yes"/>
      <point x="754.6" y="415" type="line"/>
    </contour>
    <contour>
      <point x="809.6" y="625" type="line" smooth="yes"/>
      <point x="864.6" y="625"/>
      <point x="878.6" y="600.687"/>
      <point x="878.6" y="544" type="curve" smooth="yes"/>
      <point x="878.6" y="400" type="line"/>
      <point x="754.6" y="400" type="line"/>
      <point x="754.6" y="494.602" type="line" smooth="yes"/>
      <point x="754.6" y="512.95"/>
      <point x="747.661" y="517.602"/>
      <point x="728.6" y="517.602" type="curve" smooth="yes"/>
      <point x="415.6" y="517.602" type="line"/>
      <point x="415.6" y="625" type="line"/>
    </contour>
    <contour>
      <point x="266" y="418" type="line"/>
      <point x="176" y="311" type="line"/>
      <point x="176" y="373.5" type="line" smooth="yes"/>
      <point x="176" y="387.167"/>
      <point x="168.333" y="394"/>
      <point x="153" y="394" type="curve" smooth="yes"/>
      <point x="22" y="394" type="line"/>
      <point x="22" y="497" type="line"/>
      <point x="195" y="497" type="line" smooth="yes"/>
      <point x="238.332" y="497"/>
      <point x="266" y="474.113"/>
      <point x="266" y="431" type="curve" smooth="yes"/>
    </contour>
    <contour>
      <point x="212" y="223" type="line"/>
      <point x="292" y="314.56" type="line"/>
      <point x="336.414" y="314.5" type="line" smooth="yes"/>
      <point x="371.416" y="314.431"/>
      <point x="384.414" y="299.698"/>
      <point x="384.414" y="266.572" type="curve" smooth="yes"/>
      <point x="384.414" y="60" type="line" smooth="yes"/>
      <point x="384.414" y="12.6074"/>
      <point x="365.014" y="0"/>
      <point x="317.414" y="0" type="curve" smooth="yes"/>
      <point x="70" y="0" type="line" smooth="yes"/>
      <point x="33.3613" y="0"/>
      <point x="22" y="14.0518"/>
      <point x="22" y="51" type="curve" smooth="yes"/>
      <point x="22" y="341.25" type="line"/>
      <point x="136.5" y="341.25" type="line"/>
      <point x="136.5" y="278.799" type="line"/>
      <point x="144.5" y="160.803" type="line"/>
      <point x="144.5" y="125.25" type="line" smooth="yes"/>
      <point x="144.5" y="111.04"/>
      <point x="147.676" y="107"/>
      <point x="161.5" y="107" type="curve" smooth="yes"/>
      <point x="243.414" y="107" type="line" smooth="yes"/>
      <point x="263.123" y="107"/>
      <point x="263.414" y="111.54"/>
      <point x="263.414" y="132" type="curve" smooth="yes"/>
      <point x="263.414" y="203" type="line" smooth="yes"/>
      <point x="263.414" y="216.333"/>
      <point x="258.414" y="223"/>
      <point x="248.414" y="223" type="curve" smooth="yes"/>
    </contour>
    <contour>
      <point x="150.25" y="151.324" type="curve" smooth="yes"/>
      <point x="140.75" y="151.324"/>
      <point x="136" y="153.566"/>
      <point x="136" y="158.053" type="curve"/>
      <point x="134" y="298.147" type="line"/>
      <point x="137.068" y="296.313"/>
      <point x="139.318" y="295.396"/>
      <point x="140.75" y="295.396" type="curve" smooth="yes"/>
      <point x="143.446" y="295.396"/>
      <point x="146.203" y="297.058"/>
      <point x="149" y="300.397" type="curve" smooth="yes"/>
      <point x="286" y="464" type="line" smooth="yes"/>
      <point x="290.172" y="469.001"/>
      <point x="301.419" y="478.882"/>
      <point x="312.797" y="483.197" type="curve" smooth="yes"/>
      <point x="320.682" y="486.188"/>
      <point x="331.064" y="487.901"/>
      <point x="342.2" y="487.907" type="curve" smooth="yes"/>
      <point x="350.207" y="487.911"/>
      <point x="366.487" y="486.609"/>
      <point x="375" y="486" type="curve" smooth="yes"/>
      <point x="598.6" y="470" type="line"/>
      <point x="505" y="368.994" type="line"/>
      <point x="402.202" y="377.201" type="line" smooth="yes"/>
      <point x="391.56" y="377.429"/>
      <point x="378.425" y="379.035"/>
      <point x="369.198" y="375.4" type="curve" smooth="yes"/>
      <point x="358.625" y="371.235"/>
      <point x="350.657" y="363.277"/>
      <point x="345" y="357" type="curve" smooth="yes"/>
      <point x="170" y="162.803" type="line" smooth="yes"/>
      <point x="163.185" y="155.24"/>
      <point x="156.698" y="151.324"/>
    </contour>
  </outline>
</glyph>
<glyph name="si_NdAa.halant" format="1">
  <advance width="779"/>
  <outline>
    <contour>
      <point x="158.998" y="406" type="line" smooth="yes"/>
      <point x="146.598" y="406"/>
      <point x="140.001" y="399.999"/>
      <point x="140.001" y="381.999" type="curve" smooth="yes"/>
      <point x="140.001" y="-0.000976562" type="line"/>
      <point x="22" y="-0.000976562" type="line"/>
      <point x="22" y="405.999" type="line" smooth="yes"/>
      <point x="22" y="459.543"/>
      <point x="56.2471" y="496.999"/>
      <point x="108.4" y="496.999" type="curve" smooth="yes"/>
      <point x="255.002" y="496.998" type="line"/>
      <point x="202.001" y="405.999" type="line"/>
    </contour>
    <component base="si_DAa.halant" xOffset="165"/>
  </outline>
</glyph>
<glyph name="si_NdI" format="1">
  <advance width="624"/>
  <outline>
    <contour>
      <point x="185.385" y="511" type="line"/>
      <point x="185.385" y="595.803" type="line" smooth="yes"/>
      <point x="185.385" y="625.797"/>
      <point x="202.301" y="640"/>
      <point x="229.385" y="640" type="curve" smooth="yes"/>
      <point x="546.203" y="640" type="line" smooth="yes"/>
      <point x="571.536" y="640"/>
      <point x="587.203" y="628.565"/>
      <point x="587.203" y="597" type="curve" smooth="yes"/>
      <point x="587.203" y="511" type="line"/>
      <point x="463.198" y="511" type="line"/>
      <point x="463.198" y="528" type="line" smooth="yes"/>
      <point x="463.198" y="540.878"/>
      <point x="462.482" y="546.001"/>
      <point x="449.603" y="546.001" type="curve" smooth="yes"/>
      <point x="322.385" y="546.001" type="line" smooth="yes"/>
      <point x="311.052" y="546.001"/>
      <point x="309.39" y="540.001"/>
      <point x="309.39" y="528.001" type="curve" smooth="yes"/>
      <point x="309.39" y="511" type="line"/>
    </contour>
    <component base="si_Nda"/>
  </outline>
</glyph>
<glyph name="si_NnUu" format="1">
  <advance width="845"/>
  <outline>
    <contour>
      <point x="814.002" y="-159.999" type="line"/>
      <point x="697.402" y="-159.999" type="line"/>
      <point x="689.848" y="-152.036"/>
      <point x="681.936" y="-141.535"/>
      <point x="674.207" y="-136.201" type="curve" smooth="yes"/>
      <point x="664.036" y="-129.182"/>
      <point x="652.516" y="-129.002"/>
      <point x="642.407" y="-129.002" type="curve"/>
      <point x="591" y="-129.002" type="line"/>
      <point x="579.024" y="-129.002"/>
      <point x="567.19" y="-129.478"/>
      <point x="548.595" y="-137" type="curve"/>
      <point x="502.595" y="-153" type="line"/>
      <point x="489.531" y="-157.68"/>
      <point x="471.595" y="-162.805"/>
      <point x="443.595" y="-162.805" type="curve" smooth="yes"/>
      <point x="291.201" y="-162.805" type="line" smooth="yes"/>
      <point x="258.787" y="-162.805"/>
      <point x="243.2" y="-150.575"/>
      <point x="243.2" y="-122.002" type="curve" smooth="yes"/>
      <point x="243.2" y="-29.0029" type="line"/>
      <point x="360.2" y="-29.0029" type="line"/>
      <point x="360.2" y="-51.002" type="line" smooth="yes"/>
      <point x="360.2" y="-62.2861"/>
      <point x="365.068" y="-69.0029"/>
      <point x="377.005" y="-69.0029" type="curve" smooth="yes"/>
      <point x="449.389" y="-69.0029" type="line" smooth="yes"/>
      <point x="462.389" y="-69.0029"/>
      <point x="480.981" y="-65.3271"/>
      <point x="498.595" y="-59" type="curve"/>
      <point x="533.595" y="-47" type="line"/>
      <point x="553.051" y="-39.2598"/>
      <point x="573.148" y="-39.002"/>
      <point x="588.796" y="-39.002" type="curve"/>
      <point x="644.416" y="-39.002" type="line"/>
      <point x="654.377" y="-39.002"/>
      <point x="671.439" y="-39.1924"/>
      <point x="679.612" y="-45.002" type="curve" smooth="yes"/>
      <point x="685.419" y="-49.1299"/>
      <point x="686.253" y="-50.2412"/>
      <point x="691" y="-55.002" type="curve"/>
      <point x="691" y="30.416" type="line"/>
      <point x="769.002" y="30.416" type="line" smooth="yes"/>
      <point x="795.002" y="30.416"/>
      <point x="810.002" y="44.416"/>
      <point x="814.002" y="72.416" type="curve"/>
    </contour>
    <component base="si_Nna"/>
  </outline>
</glyph>
<glyph name="si_RAae" format="1">
  <advance width="681"/>
  <outline>
    <contour>
      <point x="455.218" y="638.001" type="line"/>
      <point x="680.624" y="638.001" type="line"/>
      <point x="680.624" y="537.001" type="line"/>
      <point x="588.624" y="481.001" type="line"/>
      <point x="680.624" y="481.001" type="line"/>
      <point x="680.624" y="389.001" type="line"/>
      <point x="598.199" y="235.793" type="line" smooth="yes"/>
      <point x="585.704" y="213.443"/>
      <point x="585.624" y="193.651"/>
      <point x="585.624" y="163.6" type="curve" smooth="yes"/>
      <point x="585.624" y="124.001" type="line" smooth="yes"/>
      <point x="585.624" y="112.696"/>
      <point x="588.666" y="107"/>
      <point x="602" y="107" type="curve" smooth="yes"/>
      <point x="680.624" y="107.001" type="line"/>
      <point x="680.624" y="0.000976562" type="line"/>
      <point x="506.2" y="0" type="line" smooth="yes"/>
      <point x="481.938" y="-0"/>
      <point x="461.218" y="8.36924"/>
      <point x="461.218" y="50" type="curve" smooth="yes"/>
      <point x="461.218" y="194.001" type="line" smooth="yes"/>
      <point x="461.218" y="224.668"/>
      <point x="464.761" y="243.288"/>
      <point x="478" y="268" type="curve" smooth="yes"/>
      <point x="541.218" y="386.001" type="line"/>
      <point x="456.218" y="386.001" type="line"/>
      <point x="456.218" y="485.001" type="line"/>
      <point x="533.218" y="532.001" type="line"/>
      <point x="455.218" y="532.001" type="line"/>
    </contour>
    <component base="si_Ra"/>
  </outline>
</glyph>
<glyph name="si_SRIi" format="1">
  <advance width="565"/>
  <outline>
    <contour>
      <point x="23.4004" y="-15.8076" type="line"/>
      <point x="147.405" y="-15.8076" type="line"/>
      <point x="147.405" y="-35.0107" type="line" smooth="yes"/>
      <point x="147.405" y="-47.0107"/>
      <point x="149.067" y="-53.0107"/>
      <point x="160.4" y="-53.0107" type="curve" smooth="yes"/>
      <point x="393.8" y="-53.0107" type="line" smooth="yes"/>
      <point x="406.68" y="-53.0107"/>
      <point x="407.396" y="-47.8877"/>
      <point x="407.396" y="-35.0098" type="curve" smooth="yes"/>
      <point x="407.396" y="-15.8076" type="line"/>
      <point x="531.4" y="-15.8076" type="line"/>
      <point x="531.4" y="-116.021" type="line" smooth="yes"/>
      <point x="531.4" y="-147.587"/>
      <point x="515.733" y="-159.021"/>
      <point x="490.4" y="-159.021" type="curve" smooth="yes"/>
      <point x="67.4004" y="-159.021" type="line" smooth="yes"/>
      <point x="40.3164" y="-159.021"/>
      <point x="23.4004" y="-144.818"/>
      <point x="23.4004" y="-114.824" type="curve" smooth="yes"/>
    </contour>
    <component base="si_SIi"/>
  </outline>
</glyph>
<glyph name="si_TtR.halant" format="1">
  <advance width="515"/>
  <outline>
    <contour>
      <point x="22.3896" y="-15.8076" type="line"/>
      <point x="22.3896" y="-114.824" type="line" smooth="yes"/>
      <point x="22.3896" y="-144.818"/>
      <point x="39.3057" y="-159.021"/>
      <point x="66.3896" y="-159.021" type="curve" smooth="yes"/>
      <point x="442.199" y="-159.021" type="line" smooth="yes"/>
      <point x="467.532" y="-159.021"/>
      <point x="483.199" y="-147.587"/>
      <point x="483.199" y="-116.021" type="curve" smooth="yes"/>
      <point x="483.199" y="-15.8076" type="line"/>
      <point x="359.194" y="-15.8076" type="line"/>
      <point x="359.194" y="-35.0098" type="line" smooth="yes"/>
      <point x="359.194" y="-47.8877"/>
      <point x="358.479" y="-53.0107"/>
      <point x="345.599" y="-53.0107" type="curve" smooth="yes"/>
      <point x="159.39" y="-53.0107" type="line" smooth="yes"/>
      <point x="148.057" y="-53.0107"/>
      <point x="146.395" y="-47.0107"/>
      <point x="146.395" y="-35.0107" type="curve" smooth="yes"/>
      <point x="146.395" y="-15.8076" type="line"/>
    </contour>
    <contour>
      <point x="485" y="400" type="line"/>
      <point x="361" y="400" type="line"/>
      <point x="361" y="441" type="line" smooth="yes"/>
      <point x="361" y="459.349"/>
      <point x="354.061" y="464"/>
      <point x="335" y="464" type="curve" smooth="yes"/>
      <point x="14" y="464" type="line"/>
      <point x="14" y="550" type="line"/>
      <point x="94" y="550" type="line"/>
      <point x="64.6667" y="557.333"/>
      <point x="50" y="571.667"/>
      <point x="50" y="593" type="curve" smooth="yes"/>
      <point x="50" y="632" type="line" smooth="yes"/>
      <point x="50" y="659.333"/>
      <point x="66.3333" y="673"/>
      <point x="99" y="673" type="curve" smooth="yes"/>
      <point x="483" y="673" type="line"/>
      <point x="483" y="589" type="line"/>
      <point x="206" y="589" type="line" smooth="yes"/>
      <point x="188" y="589"/>
      <point x="179" y="584.333"/>
      <point x="179" y="575" type="curve" smooth="yes"/>
      <point x="179" y="565.226"/>
      <point x="186.926" y="558"/>
      <point x="197" y="558" type="curve" smooth="yes"/>
      <point x="416" y="558" type="line" smooth="yes"/>
      <point x="471.441" y="558"/>
      <point x="485" y="533.686"/>
      <point x="485" y="477" type="curve" smooth="yes"/>
    </contour>
    <contour>
      <point x="254" y="313.201" type="line"/>
      <point x="167" y="313.201" type="line" smooth="yes"/>
      <point x="153" y="313.201"/>
      <point x="146" y="306.868"/>
      <point x="146" y="294.201" type="curve" smooth="yes"/>
      <point x="146" y="129" type="line" smooth="yes"/>
      <point x="146" y="114.333"/>
      <point x="152" y="107"/>
      <point x="164" y="107" type="curve" smooth="yes"/>
      <point x="343" y="107" type="line" smooth="yes"/>
      <point x="355" y="107"/>
      <point x="361" y="114.333"/>
      <point x="361" y="129" type="curve" smooth="yes"/>
      <point x="361" y="415" type="line"/>
      <point x="485" y="415" type="line"/>
      <point x="485" y="54" type="line" smooth="yes"/>
      <point x="485" y="16.2705"/>
      <point x="472.075" y="0"/>
      <point x="435" y="0" type="curve" smooth="yes"/>
      <point x="72" y="0" type="line" smooth="yes"/>
      <point x="34.9277" y="0"/>
      <point x="22" y="16.2734"/>
      <point x="22" y="54" type="curve" smooth="yes"/>
      <point x="22" y="364.803" type="line" smooth="yes"/>
      <point x="22" y="401.47"/>
      <point x="40.667" y="419.803"/>
      <point x="78" y="419.803" type="curve" smooth="yes"/>
      <point x="253.998" y="419.803" type="line"/>
    </contour>
  </outline>
</glyph>
<glyph name="si_Va.reph" format="1">
  <advance width="515"/>
  <outline>
    <contour>
      <point x="485" y="350.404" type="line"/>
      <point x="485" y="54" type="line" smooth="yes"/>
      <point x="485" y="16.2705"/>
      <point x="472.075" y="0"/>
      <point x="435" y="0" type="curve" smooth="yes"/>
      <point x="72" y="0" type="line" smooth="yes"/>
      <point x="34.9277" y="0"/>
      <point x="22" y="16.2734"/>
      <point x="22" y="54" type="curve" smooth="yes"/>
      <point x="22" y="211.015" type="line" smooth="yes"/>
      <point x="22" y="247.682"/>
      <point x="40.667" y="266.015"/>
      <point x="78" y="266.015" type="curve" smooth="yes"/>
      <point x="144" y="266.015" type="line"/>
      <point x="144" y="288.404" type="line" smooth="yes"/>
      <point x="144" y="297.737"/>
      <point x="138.667" y="302.404"/>
      <point x="128" y="302.404" type="curve" smooth="yes"/>
      <point x="21.999" y="302.404" type="line"/>
      <point x="21.999" y="405.404" type="line"/>
      <point x="205" y="405.404" type="line" smooth="yes"/>
      <point x="246.705" y="405.404"/>
      <point x="267.999" y="383.814"/>
      <point x="267.999" y="347.404" type="curve" smooth="yes"/>
      <point x="267.999" y="172.015" type="line"/>
      <point x="167" y="172.015" type="line" smooth="yes"/>
      <point x="153" y="172.015"/>
      <point x="146" y="165.682"/>
      <point x="146" y="153.015" type="curve" smooth="yes"/>
      <point x="146" y="129" type="line" smooth="yes"/>
      <point x="146" y="114.333"/>
      <point x="152" y="107"/>
      <point x="164" y="107" type="curve" smooth="yes"/>
      <point x="343" y="107" type="line" smooth="yes"/>
      <point x="355" y="107"/>
      <point x="361" y="114.333"/>
      <point x="361" y="129" type="curve" smooth="yes"/>
      <point x="361" y="350.404" type="line"/>
    </contour>
    <contour>
      <point x="213.593" y="628" type="line"/>
      <point x="297.802" y="628" type="line"/>
      <point x="297.802" y="590.188" type="line" smooth="yes"/>
      <point x="297.802" y="563.011"/>
      <point x="286.311" y="553.188"/>
      <point x="266.802" y="553.188" type="curve" smooth="yes"/>
      <point x="94.8018" y="553.188" type="line" smooth="yes"/>
      <point x="68.332" y="553.188"/>
      <point x="54.8018" y="567.084"/>
      <point x="54.8018" y="599.188" type="curve" smooth="yes"/>
      <point x="54.8018" y="669" type="line" smooth="yes"/>
      <point x="54.8018" y="697.736"/>
      <point x="72.0508" y="717"/>
      <point x="108.802" y="717" type="curve" smooth="yes"/>
      <point x="393.802" y="717" type="line" smooth="yes"/>
      <point x="427.247" y="717"/>
      <point x="444.802" y="700.164"/>
      <point x="444.802" y="661" type="curve" smooth="yes"/>
      <point x="444.802" y="575.198" type="line"/>
      <point x="331.802" y="575.198" type="line"/>
      <point x="331.802" y="630" type="line" smooth="yes"/>
      <point x="331.802" y="645.321"/>
      <point x="326.469" y="653"/>
      <point x="315.802" y="653" type="curve" smooth="yes"/>
      <point x="182.802" y="653" type="line" smooth="yes"/>
      <point x="172.135" y="653"/>
      <point x="166.802" y="648.667"/>
      <point x="166.802" y="640" type="curve" smooth="yes"/>
      <point x="166.802" y="612" type="line" smooth="yes"/>
      <point x="166.802" y="603.333"/>
      <point x="170.521" y="599"/>
      <point x="178.802" y="599" type="curve" smooth="yes"/>
      <point x="200.802" y="599" type="line" smooth="yes"/>
      <point x="212.066" y="599"/>
      <point x="213.593" y="604.333"/>
      <point x="213.593" y="615" type="curve" smooth="yes"/>
    </contour>
    <contour>
      <point x="416" y="560.404" type="line" smooth="yes"/>
      <point x="471" y="560.404"/>
      <point x="485" y="536.091"/>
      <point x="485" y="479.404" type="curve" smooth="yes"/>
      <point x="485" y="335.404" type="line"/>
      <point x="361" y="335.404" type="line"/>
      <point x="361" y="430.006" type="line" smooth="yes"/>
      <point x="361" y="448.354"/>
      <point x="354.062" y="453.006"/>
      <point x="335" y="453.006" type="curve" smooth="yes"/>
      <point x="22" y="453.006" type="line"/>
      <point x="22" y="560.404" type="line"/>
    </contour>
  </outline>
</glyph>
<glyph name="si_Y.halant" format="1">
  <advance width="564"/>
  <outline>
    <contour>
      <point x="408.798" y="492.396" type="line"/>
      <point x="408.798" y="649" type="line"/>
      <point x="533" y="649" type="line"/>
      <point x="533" y="426" type="line"/>
      <point x="528.333" y="433.333"/>
      <point x="512.918" y="462.636"/>
      <point x="501" y="470.791" type="curve" smooth="yes"/>
      <point x="488.544" y="479.315"/>
      <point x="469.502" y="492.396"/>
      <point x="444" y="492.396" type="curve" smooth="yes"/>
    </contour>
    <component base="si_Ya"/>
  </outline>
</glyph>
<glyph name="si_Y.post.halant" format="1">
  <advance width="544"/>
  <outline>
    <contour>
      <point x="345.798" y="486.396" type="line"/>
      <point x="345.798" y="643" type="line"/>
      <point x="470" y="643" type="line"/>
      <point x="470" y="420" type="line"/>
      <point x="465.333" y="427.333"/>
      <point x="449.918" y="456.636"/>
      <point x="438" y="464.791" type="curve" smooth="yes"/>
      <point x="425.544" y="473.315"/>
      <point x="406.502" y="486.396"/>
      <point x="381" y="486.396" type="curve" smooth="yes"/>
    </contour>
    <component base="si_Ya.post"/>
  </outline>
</glyph>
<glyph name="si_YUu.post" format="1">
  <advance width="501"/>
  <outline>
    <contour>
      <point x="470.007" y="-158.999" type="line"/>
      <point x="353.407" y="-158.999" type="line"/>
      <point x="345.853" y="-151.036"/>
      <point x="337.94" y="-141.535"/>
      <point x="330.212" y="-136.201" type="curve" smooth="yes"/>
      <point x="320.041" y="-129.182"/>
      <point x="308.521" y="-129.002"/>
      <point x="298.412" y="-129.002" type="curve"/>
      <point x="285.419" y="-129.002" type="line"/>
      <point x="273.443" y="-129.002"/>
      <point x="263.848" y="-131.704"/>
      <point x="251.419" y="-136.803" type="curve"/>
      <point x="208.215" y="-153.804" type="line"/>
      <point x="196.427" y="-158.021"/>
      <point x="184.422" y="-162.805"/>
      <point x="156.422" y="-162.805" type="curve" smooth="yes"/>
      <point x="70.2158" y="-162.805" type="line" smooth="yes"/>
      <point x="37.8018" y="-162.805"/>
      <point x="22.2148" y="-150.575"/>
      <point x="22.2148" y="-122.002" type="curve" smooth="yes"/>
      <point x="22.2148" y="-29.0029" type="line"/>
      <point x="139.215" y="-29.0029" type="line"/>
      <point x="139.215" y="-51.002" type="line" smooth="yes"/>
      <point x="139.215" y="-62.2861"/>
      <point x="144.083" y="-69.0029"/>
      <point x="156.02" y="-69.0029" type="curve" smooth="yes"/>
      <point x="162.216" y="-69.0029" type="line" smooth="yes"/>
      <point x="175.216" y="-69.0029"/>
      <point x="191.36" y="-65.4404"/>
      <point x="208.215" y="-58.8008" type="curve"/>
      <point x="241.415" y="-46.001" type="line"/>
      <point x="254.381" y="-40.6738"/>
      <point x="267.567" y="-39.002"/>
      <point x="283.215" y="-39.002" type="curve"/>
      <point x="300.421" y="-39.002" type="line"/>
      <point x="310.382" y="-39.002"/>
      <point x="327.444" y="-39.1924"/>
      <point x="335.617" y="-45.002" type="curve" smooth="yes"/>
      <point x="341.424" y="-49.1299"/>
      <point x="342.258" y="-50.2412"/>
      <point x="347.005" y="-55.002" type="curve"/>
      <point x="347.005" y="36" type="line"/>
      <point x="425.007" y="36" type="line" smooth="yes"/>
      <point x="451.007" y="36"/>
      <point x="466.007" y="50"/>
      <point x="470.007" y="78" type="curve"/>
    </contour>
    <component base="si_Ya.post"/>
  </outline>
</glyph>
